<?xml version="1.0" standalone="no"?><!DOCTYPE svg PUBLIC "-//W3C//DTD SVG 1.1//EN" "http://www.w3.org/Graphics/SVG/1.1/DTD/svg11.dtd"><svg t="1534172934583" class="icon" style="" viewBox="0 0 1024 1024" version="1.1" xmlns="http://www.w3.org/2000/svg" p-id="4143" xmlns:xlink="http://www.w3.org/1999/xlink" width="200" height="200"><defs><style type="text/css"></style></defs><path d="M432.944 335.082667A21.546667 21.546667 0 0 0 448.026667 341.333333a21.546667 21.546667 0 0 0 15.082666-6.250666l128-128a21.312 21.312 0 1 0-30.165333-30.165334L469.36 268.501333V21.333333a21.333333 21.333333 0 0 0-42.666667 0v247.168l-91.584-91.584a21.312 21.312 0 1 0-30.165333 30.165334l128 128z" fill="#231F20" p-id="4144"></path><path d="M1002.693333 128h-149.333333c-9.898667 0-18.496 6.805333-20.778667 16.448L776.218667 384H21.36a21.333333 21.333333 0 0 0-20.245333 28.074667l128 384A21.333333 21.333333 0 0 0 149.36 810.666667h526.485333l-10.048 42.666666H213.36c-47.061333 0-85.333333 38.272-85.333333 85.333334s38.272 85.333333 85.333333 85.333333 85.333333-38.272 85.333333-85.333333c0-15.616-4.522667-30.058667-11.861333-42.666667h322.389333A84.458667 84.458667 0 0 0 597.36 938.666667c0 47.061333 38.272 85.333333 85.333333 85.333333s85.333333-38.272 85.333334-85.333333c0-37.973333-25.088-69.845333-59.434667-80.874667L870.256 170.666667H1002.693333a21.333333 21.333333 0 0 0 0-42.666667zM164.72 768L50.949333 426.666667h715.221334l-80.298667 341.333333H164.72zM256.026667 938.666667c0 23.530667-19.136 42.666667-42.666667 42.666666s-42.666667-19.136-42.666667-42.666666 19.136-42.666667 42.666667-42.666667 42.666667 19.136 42.666667 42.666667z m469.333333 0c0 23.530667-19.136 42.666667-42.666667 42.666666s-42.666667-19.136-42.666666-42.666666 19.136-42.666667 42.666666-42.666667 42.666667 19.136 42.666667 42.666667z" fill="#231F20" p-id="4145"></path></svg>