<?xml version="1.0" standalone="no"?><!DOCTYPE svg PUBLIC "-//W3C//DTD SVG 1.1//EN" "http://www.w3.org/Graphics/SVG/1.1/DTD/svg11.dtd"><svg t="1534214416964" class="icon" style="" viewBox="0 0 1024 1024" version="1.1" xmlns="http://www.w3.org/2000/svg" p-id="4019" xmlns:xlink="http://www.w3.org/1999/xlink" width="1024" height="1024"><defs><style type="text/css"></style></defs><path d="M531.5 154c103.5 0 187.3 83.9 187.3 187.3S635 528.7 531.5 528.7s-187.3-83.9-187.3-187.3S428 154 531.5 154z" fill="#F5B604" p-id="4020"></path><path d="M502.5 551.8c0.2 0 0.5-0.1 0.7-0.1 1.3 0 2.6 0.1 4 0.1 125 0 226.8-101.7 226.8-226.8 0-125.1-101.8-226.8-226.8-226.8S280.3 199.9 280.3 325c0 89.1 51.7 166.3 126.6 203.4C238.2 571.1 113 724.2 113 906c0 1.1 0 2.1 0.1 3.2v1.7c0.1 9.7 8 17.4 17.6 17.4h375.6c9.7 0 17.6-7.9 17.6-17.6 0-9.7-7.9-17.6-17.6-17.6H148.5c6.9-189.4 163-341.3 354-341.3zM315.6 325c0-105.6 85.9-191.6 191.6-191.6 105.6 0 191.6 85.9 191.6 191.6 0 105.6-85.9 191.6-191.6 191.6-105.7 0-191.6-86-191.6-191.6z" fill="#31445C" p-id="4021"></path><path d="M832 648.7H636.8c-9.7 0-17.6-7.9-17.6-17.6 0-9.7 7.9-17.6 17.6-17.6H832c9.7 0 17.6 7.9 17.6 17.6 0.1 9.7-7.8 17.6-17.6 17.6zM832 778.8H636.8c-9.7 0-17.6-7.9-17.6-17.6s7.9-17.6 17.6-17.6H832c9.7 0 17.6 7.9 17.6 17.6s-7.8 17.6-17.6 17.6zM897.1 904.3H636.8c-9.7 0-17.6-7.9-17.6-17.6 0-9.7 7.9-17.6 17.6-17.6h260.3c9.7 0 17.6 7.9 17.6 17.6 0.1 9.7-7.8 17.6-17.6 17.6z" fill="#F5B604" p-id="4022"></path><path d="M823.2 635.4H628c-9.7 0-17.6-7.9-17.6-17.6 0-9.7 7.9-17.6 17.6-17.6h195.2c9.7 0 17.6 7.9 17.6 17.6 0.1 9.7-7.8 17.6-17.6 17.6zM823.2 765.6H628c-9.7 0-17.6-7.9-17.6-17.6 0-9.7 7.9-17.6 17.6-17.6h195.2c9.7 0 17.6 7.9 17.6 17.6 0.1 9.7-7.8 17.6-17.6 17.6zM888.3 891.1H628c-9.7 0-17.6-7.9-17.6-17.6 0-9.7 7.9-17.6 17.6-17.6h260.3c9.7 0 17.6 7.9 17.6 17.6 0 9.7-7.9 17.6-17.6 17.6z" fill="#31445C" p-id="4023"></path><path d="M520.9 789.5l43.8-40.9-19.2-124h-49.1l-19.2 124 43.7 40.9z" fill="#F5B604" p-id="4024"></path><path d="M507.3 834.7c-4.3 0-8.6-1.5-11.9-4.7L436 775.4c-4.3-4-6.4-9.9-5.5-15.7l26.1-165.3c1.4-8.6 8.7-14.9 17.4-14.9h66.6c8.7 0 16.1 6.3 17.4 14.9l26 165.3c0.9 5.8-1.1 11.7-5.5 15.7L519.2 830c-3.4 3.1-7.7 4.7-11.9 4.7z m-40.5-78.8l40.5 37.2 40.5-37.2-22.2-141.1H489l-22.2 141.1z" fill="#31445C" p-id="4025"></path></svg>